<svg xmlns="http://www.w3.org/2000/svg" viewBox="0 0 230 222">
  <path fill="#1DB954" d="M128.013 222c31.82-3.795 43.683-23.131 43.683-53.49V46.532h-34.211v123.966c0 17.529-5.058 21.143-14.99 25.932zM154.683 37.316c11.311 0 20.048-7.409 20.048-18.522C174.731 7.59 166.086 0 154.683 0c-11.312 0-19.865 7.59-19.865 18.794.092 11.113 8.553 18.522 19.865 18.522M20.232 127.942c0 15.36-5.058 20.601-20.232 20.601v28.552c4.69.632 8.46.813 12.507.813 27.313 0 43.499-12.74 43.499-45.719V42.467H20.232zM79.364 177.456h34.579V73.639H79.364zM193.123 73.64v103.816h34.578V73.639zM230 42.466c0-10.662-8.737-19.245-19.588-19.245s-19.588 8.674-19.588 19.245c0 10.662 8.736 19.246 19.588 19.246S230 53.128 230 42.466M96.654 23.22c10.852 0 19.588 8.584 19.588 19.246s-8.736 19.246-19.588 19.246-19.588-8.584-19.588-19.246c0-10.571 8.736-19.245 19.588-19.245"/>
</svg>
